<svg width="60" height="48" viewBox="0 0 60 48" fill="none" xmlns="http://www.w3.org/2000/svg">
<path d="M37.17 38.2065H3.34733C1.50133 38.2065 0 36.1623 0 33.6496V4.55773C0 2.04421 1.50133 0 3.34733 0H37.17C39.016 0 40.5173 2.04421 40.5173 4.55773V33.6496C40.5167 36.1623 39.0153 38.2065 37.17 38.2065ZM3.34733 1.81547C2.23667 1.81547 1.33333 3.04544 1.33333 4.55773V33.6496C1.33333 35.161 2.23667 36.3919 3.34733 36.3919H37.17C38.28 36.3919 39.184 35.1619 39.184 33.6496V4.55773C39.184 3.04544 38.2807 1.81547 37.17 1.81547H3.34733Z" fill="#66FF00"/>
<path d="M25.2046 44.1557H15.312C14.944 44.1557 14.6453 43.75 14.6453 43.248V37.2987C14.6453 36.7967 14.944 36.391 15.312 36.391H25.204C25.572 36.391 25.8706 36.7967 25.8706 37.2987V43.248C25.8713 43.75 25.5726 44.1557 25.2046 44.1557ZM15.9786 42.3403H24.5373V38.2065H15.9786V42.3403Z" fill="#66FF00"/>
<path d="M28.7513 48H11.7653C11.3973 48 11.0987 47.5942 11.0987 47.0923V46.1246C11.0987 44.0377 12.346 42.3403 13.878 42.3403H26.6387C28.1713 42.3403 29.418 44.0377 29.418 46.1246V47.0923C29.418 47.5942 29.12 48 28.7513 48ZM12.432 46.1845H28.0847V46.1246C28.0847 45.039 27.436 44.1557 26.6387 44.1557H13.878C13.0807 44.1557 12.432 45.039 12.432 46.1246V46.1845Z" fill="#66FF00"/>
<path d="M39.85 31.1951H0.666667C0.298667 31.1951 0 30.7893 0 30.2874C0 29.7854 0.298667 29.3796 0.666667 29.3796H39.85C40.2187 29.3796 40.5167 29.7854 40.5167 30.2874C40.5167 30.7893 40.2187 31.1951 39.85 31.1951Z" fill="#66FF00"/>
<path d="M56.758 48H46.9027C45.1147 48 43.6607 46.0193 43.6607 43.5866V4.4143C43.6607 1.97977 45.1153 0 46.9027 0H56.758C58.546 0 60 1.98067 60 4.4143V43.5866C60 46.0202 58.5453 48 56.758 48ZM46.9027 1.81547C45.85 1.81547 44.994 2.9819 44.994 4.4143V43.5866C44.994 45.019 45.85 46.1845 46.9027 46.1845H56.758C57.8107 46.1845 58.6667 45.019 58.6667 43.5866V4.4143C58.6667 2.98099 57.8107 1.81547 56.758 1.81547H46.9027Z" fill="#66FF00"/>
<path d="M51.83 20.1643C50.488 20.1643 49.3966 18.6775 49.3966 16.8502C49.3966 15.0229 50.4886 13.5361 51.83 13.5361C53.1726 13.5361 54.264 15.0229 54.264 16.8502C54.264 18.6775 53.1726 20.1643 51.83 20.1643ZM51.83 15.3515C51.2233 15.3515 50.73 16.0242 50.73 16.8502C50.73 17.6762 51.2233 18.3489 51.83 18.3489C52.4366 18.3489 52.9306 17.6762 52.9306 16.8502C52.9306 16.0242 52.4366 15.3515 51.83 15.3515Z" fill="#66FF00"/>
<path d="M59.3333 10.3482H44.3267C43.958 10.3482 43.66 9.94152 43.66 9.44045C43.66 8.93938 43.958 8.53271 44.3267 8.53271H59.3333C59.702 8.53271 60 8.93938 60 9.44045C60 9.94152 59.702 10.3482 59.3333 10.3482Z" fill="#66FF00"/>
<path d="M55.4267 34.8343H48.234C47.8654 34.8343 47.5674 34.4285 47.5674 33.9265C47.5674 33.4246 47.8654 33.0188 48.234 33.0188H55.4267C55.7954 33.0188 56.0934 33.4246 56.0934 33.9265C56.0934 34.4285 55.7947 34.8343 55.4267 34.8343Z" fill="#66FF00"/>
<path d="M55.4267 40.5657H48.234C47.8654 40.5657 47.5674 40.16 47.5674 39.658C47.5674 39.156 47.8654 38.7502 48.234 38.7502H55.4267C55.7954 38.7502 56.0934 39.156 56.0934 39.658C56.0934 40.16 55.7947 40.5657 55.4267 40.5657Z" fill="#66FF00"/>
<path d="M21.0667 34.8343H19.4507C19.0827 34.8343 18.784 34.4285 18.784 33.9265C18.784 33.4246 19.0827 33.0188 19.4507 33.0188H21.0667C21.4347 33.0188 21.7333 33.4246 21.7333 33.9265C21.7333 34.4285 21.4347 34.8343 21.0667 34.8343Z" fill="#66FF00"/>
</svg>
