<svg width="48" height="48" viewBox="0 0 100 100" fill="none" xmlns="http://www.w3.org/2000/svg">
<path d="M50.0002 49.3149C43.6002 49.3149 38.3925 43.9057 38.3925 37.2571C38.3925 30.6097 43.6002 25.2006 50.0002 25.2006C56.4013 25.2006 61.608 30.6097 61.608 37.2571C61.608 43.9068 56.4013 49.3149 50.0002 49.3149Z" fill="#66FF00"/>
<path d="M34.1914 72.5641C33.0547 72.5641 32.1358 71.5874 32.2447 70.4485C33.1947 60.4528 40.7947 52.6397 50.0002 52.6397C59.2058 52.6397 66.8068 60.4528 67.7568 70.4485C67.8646 71.5863 66.9457 72.5641 65.8102 72.5641H34.1914Z" fill="#66FF00"/>
<path d="M57.6546 5.59355C57.4391 4.92411 56.8735 4.44578 56.1813 4.34408L53.0413 3.88475L51.6358 1.0226V1.02148C51.3258 0.391157 50.6991 0 50.0002 0C49.3013 0 48.6736 0.392275 48.3636 1.02371L46.9591 3.88587L43.818 4.3452C43.1258 4.4469 42.5613 4.92635 42.3447 5.59467C42.1291 6.26411 42.3058 6.98495 42.8069 7.47669L45.0791 9.70517L44.5424 12.8512C44.4247 13.5452 44.7036 14.2325 45.2691 14.646C45.8336 15.0596 46.5691 15.1121 47.1902 14.7857L50.0002 13.2993L52.8091 14.7846C53.0791 14.9266 53.3702 14.997 53.6602 14.997C54.0369 14.997 54.4113 14.8785 54.7313 14.6449C55.298 14.2314 55.5758 13.5441 55.4569 12.8501L54.9213 9.70405L57.1946 7.47557C57.6958 6.98383 57.8713 6.26299 57.6546 5.59355Z" fill="#FFD164"/>
<path d="M57.6546 90.5965C57.4402 89.926 56.8746 89.4476 56.1813 89.3459L53.0413 88.8866L51.6358 86.0244C51.3269 85.393 50.6991 85.0007 49.9991 85.0007C49.3002 85.0007 48.6724 85.393 48.3624 86.0244L46.958 88.8866L43.8158 89.3459C43.1236 89.4476 42.5591 89.9282 42.3436 90.5965C42.128 91.266 42.3058 91.9857 42.8058 92.4763L45.078 94.7059L44.5413 97.8519C44.4236 98.546 44.7025 99.2333 45.268 99.6468C45.588 99.8804 45.9624 99.9988 46.338 99.9988C46.628 99.9988 46.9191 99.9284 47.1891 99.7854L50.0002 98.3012L52.8091 99.7865C53.4258 100.114 54.1635 100.063 54.7291 99.6479C55.2969 99.2344 55.5747 98.5471 55.4558 97.853L54.9202 94.707L57.1935 92.4774C57.6946 91.9857 57.8713 91.266 57.6546 90.5965Z" fill="#FFD164"/>
<path d="M15.4014 48.0945C15.1858 47.425 14.6203 46.9467 13.9281 46.845L10.787 46.3857L9.38251 43.5224C9.07251 42.8921 8.44474 42.5009 7.74585 42.5009C7.04696 42.5009 6.41918 42.8932 6.10918 43.5246L4.70474 46.3868L1.56364 46.8461C0.871416 46.9478 0.306973 47.4273 0.0903067 48.0956C-0.125248 48.765 0.0514179 49.4859 0.552528 49.9765L2.82475 52.2061L2.28808 55.3521C2.1703 56.0461 2.44919 56.7335 3.01475 57.147C3.33474 57.3805 3.70919 57.499 4.08474 57.499C4.37474 57.499 4.66585 57.4286 4.93585 57.2855L7.74474 55.8003L10.5536 57.2855C11.1736 57.6152 11.9103 57.5616 12.4747 57.147C13.0414 56.7335 13.3192 56.0461 13.2014 55.3521L12.6669 52.205L14.9392 49.9765C15.4403 49.4859 15.6169 48.765 15.4014 48.0945Z" fill="#FFD164"/>
<path d="M99.909 48.0945C99.6935 47.425 99.1279 46.9467 98.4357 46.845L95.2957 46.3857L93.8901 43.5235C93.5813 42.8932 92.9535 42.4998 92.2535 42.4998C91.5535 42.4998 90.9268 42.8921 90.6168 43.5235L89.2113 46.3857L86.0713 46.845C85.379 46.9467 84.8135 47.425 84.5979 48.0945C84.3824 48.7639 84.5579 49.4848 85.059 49.9765L87.3324 52.205L86.7968 55.351C86.679 56.045 86.9568 56.7324 87.5235 57.1459C87.8424 57.3794 88.2168 57.4979 88.5935 57.4979C88.8835 57.4979 89.1746 57.4275 89.4446 57.2844L92.2535 55.7992L95.0624 57.2844C95.679 57.6119 96.4179 57.5605 96.9824 57.1459C97.5501 56.7324 97.8279 56.045 97.709 55.351L97.1735 52.205L99.4468 49.9754C99.949 49.4848 100.126 48.7639 99.909 48.0945Z" fill="#FFD164"/>
<path d="M36.918 11.2877C36.7025 10.6182 36.1369 10.1399 35.4447 10.0382L32.3036 9.58L30.8991 6.71785C30.5891 6.08753 29.9625 5.69525 29.2625 5.69525C28.5636 5.69525 27.9358 6.08753 27.6258 6.71897L26.2214 9.58112L23.0803 10.0393C22.388 10.141 21.8236 10.6205 21.6069 11.2888C21.3914 11.9582 21.5681 12.6791 22.0692 13.1697L24.3414 15.3982L23.8047 18.5453C23.6869 19.2394 23.9658 19.9267 24.5314 20.3402C24.8514 20.5738 25.2258 20.6922 25.6014 20.6922C25.8914 20.6922 26.1825 20.6218 26.4525 20.4799L29.2614 18.9946L32.0703 20.4799C32.6914 20.8085 33.4269 20.7559 33.9914 20.3413C34.558 19.9278 34.8358 19.2394 34.718 18.5464L34.1814 15.3993L36.4536 13.1708C36.9569 12.678 37.1336 11.9571 36.918 11.2877Z" fill="#FFD164"/>
<path d="M21.0614 26.4143C20.8447 25.7449 20.2803 25.2676 19.5892 25.1659L16.4481 24.7066L15.0436 21.8445C14.7347 21.213 14.107 20.8207 13.407 20.8207C12.707 20.8207 12.0803 21.213 11.7714 21.8433L10.3659 24.7066L7.22586 25.1659C6.53364 25.2665 5.96919 25.7449 5.75253 26.4143C5.53586 27.0837 5.71253 27.8057 6.21475 28.2974L8.48697 30.5259L7.94919 33.6719C7.83141 34.366 8.1103 35.0533 8.67585 35.4668C9.24141 35.8803 9.97696 35.9339 10.597 35.6065L13.4058 34.1201L16.2158 35.6065C16.4858 35.7484 16.777 35.8188 17.067 35.8188C17.4436 35.8188 17.8181 35.7004 18.1381 35.4668C18.7036 35.0533 18.9825 34.366 18.8636 33.6719L18.3269 30.5259L20.6003 28.2974C21.1014 27.8046 21.2792 27.0837 21.0614 26.4143Z" fill="#FFD164"/>
<path d="M78.7824 11.2877C78.5668 10.6183 78.0013 10.1399 77.309 10.0382L74.169 9.58002L72.7646 6.71787C72.4546 6.08643 71.8268 5.69415 71.1268 5.69415C70.4268 5.69415 69.8002 6.08643 69.4891 6.71787L68.0846 9.58002L64.9446 10.0382C64.2524 10.1399 63.6868 10.6183 63.4713 11.2877C63.2557 11.9571 63.4313 12.678 63.9324 13.1697L66.2057 15.3982L65.6702 18.5453C65.5524 19.2394 65.8302 19.9267 66.3968 20.3402C66.7157 20.5738 67.0902 20.6922 67.4668 20.6922C67.7568 20.6922 68.0479 20.6218 68.3168 20.4799L71.1268 18.9946L73.9357 20.4799C74.5535 20.8074 75.2902 20.7559 75.8568 20.3413C76.4246 19.9278 76.7024 19.2405 76.5835 18.5465L76.0479 15.3993L78.3213 13.1708C78.8224 12.6769 78.9979 11.956 78.7824 11.2877Z" fill="#FFD164"/>
<path d="M94.249 26.8457C94.0335 26.1751 93.469 25.6968 92.7757 25.5951L89.6346 25.1358L88.2301 22.2725C87.9201 21.6422 87.2924 21.251 86.5935 21.251C86.5924 21.251 86.5924 21.251 86.5913 21.251C85.8924 21.251 85.2668 21.6444 84.9568 22.2748L83.5513 25.1369L80.4113 25.5962C79.719 25.6979 79.1535 26.1763 78.9379 26.8457C78.7224 27.5151 78.8979 28.236 79.399 28.7277L81.6724 30.9562L81.1368 34.1022C81.019 34.7963 81.2968 35.4836 81.8624 35.8971C82.1824 36.1307 82.5568 36.2491 82.9335 36.2491C83.2235 36.2491 83.5135 36.1787 83.7846 36.0368L86.5935 34.5504L89.4024 36.0368C90.0212 36.3642 90.7601 36.3106 91.3235 35.8971C91.8901 35.4836 92.1679 34.7963 92.049 34.1022L91.5135 30.9562L93.7846 28.7288C94.2868 28.236 94.4646 27.5151 94.249 26.8457Z" fill="#FFD164"/>
<path d="M20.2192 69.7724C20.0025 69.1041 19.4381 68.6269 18.7469 68.5263L15.6047 68.0659L14.2014 65.2037C13.8914 64.5723 13.2647 64.18 12.5647 64.18C11.8647 64.1811 11.2381 64.5734 10.9292 65.2037L9.52474 68.0659L6.38363 68.5263C5.69141 68.6269 5.12697 69.1052 4.9103 69.7735C4.69364 70.443 4.8703 71.1638 5.37252 71.6567L7.64474 73.8852L7.10808 77.0312C6.9903 77.7252 7.26919 78.4125 7.83474 78.826C8.15474 79.0596 8.52918 79.1781 8.90474 79.1781C9.19474 79.1781 9.48585 79.1077 9.75585 78.9646L12.5647 77.4793L15.3736 78.9646C15.9925 79.2932 16.7303 79.2395 17.2958 78.8249C17.8614 78.4114 18.1392 77.7241 18.0214 77.0312L17.4847 73.8852L19.7581 71.6556C20.2603 71.1638 20.4358 70.4419 20.2192 69.7724Z" fill="#FFD164"/>
<path d="M94.249 69.3477C94.0346 68.6772 93.4701 68.1977 92.7757 68.096L89.6346 67.6367L88.2301 64.7746C87.9201 64.1442 87.2924 63.752 86.5935 63.752C86.5924 63.752 86.5924 63.752 86.5912 63.752C85.8924 63.7531 85.2668 64.1453 84.9568 64.7757L83.5513 67.6378L80.4102 68.0972C79.7179 68.1989 79.1524 68.6783 78.9379 69.3477C78.7224 70.0172 78.899 70.7369 79.399 71.2275L81.6724 73.4571L81.1368 76.6031C81.019 77.2972 81.2968 77.9845 81.8635 78.398C82.1824 78.6316 82.5568 78.75 82.9335 78.75C83.2235 78.75 83.5146 78.6796 83.7846 78.5366L86.5935 77.0513L89.4012 78.5366C90.0235 78.8663 90.7579 78.8115 91.3235 78.398C91.8901 77.9845 92.1679 77.2972 92.049 76.6031L91.5135 73.4571L93.7846 71.2286C94.2868 70.7369 94.4646 70.0161 94.249 69.3477Z" fill="#FFD164"/>
<path d="M36.918 83.948C36.7025 83.2785 36.138 82.7991 35.4436 82.6974L32.3025 82.238L30.898 79.3759C30.588 78.7444 29.9614 78.3522 29.2614 78.3522C28.5625 78.3522 27.9347 78.7444 27.6247 79.3759L26.2203 82.238L23.078 82.6974C22.3858 82.7991 21.8214 83.2796 21.6058 83.948C21.3903 84.6174 21.568 85.3371 22.068 85.8277L24.3403 88.0573L23.8036 91.2034C23.6858 91.8974 23.9647 92.5847 24.5303 92.9982C24.8503 93.2318 25.2247 93.3503 25.6003 93.3503C25.8903 93.3503 26.1814 93.2798 26.4514 93.1368L29.2602 91.6515L32.0691 93.1368C32.6902 93.4665 33.4258 93.4117 33.9902 92.9982C34.5569 92.5847 34.8347 91.8974 34.7169 91.2034L34.1802 88.0573L36.4513 85.8289C36.9558 85.3371 37.1336 84.6174 36.918 83.948Z" fill="#FFD164"/>
<path d="M78.7824 83.948C78.5679 83.2774 78.0024 82.7991 77.3091 82.6974L74.1691 82.238L72.7646 79.3759C72.4546 78.7456 71.8268 78.3522 71.1268 78.3522C70.4268 78.3522 69.8002 78.7456 69.4891 79.3759L68.0846 82.238L64.9435 82.6974C64.2513 82.7991 63.6857 83.2785 63.4713 83.948C63.2557 84.6174 63.4324 85.3371 63.9324 85.8277L66.2057 88.0573L65.6702 91.2034C65.5524 91.8974 65.8302 92.5847 66.3968 92.9982C66.7157 93.2318 67.0902 93.3503 67.4668 93.3503C67.7568 93.3503 68.048 93.2798 68.318 93.1368L71.1268 91.6515L73.9357 93.1368C74.5535 93.4643 75.2902 93.4128 75.8568 92.9982C76.4246 92.5847 76.7024 91.8974 76.5835 91.2034L76.0479 88.0573L78.3213 85.8277C78.8213 85.3371 78.9979 84.6174 78.7824 83.948Z" fill="#FFD164"/>
</svg>
