<svg width="60" height="48" viewBox="0 0 60 48" fill="none" xmlns="http://www.w3.org/2000/svg">
<path d="M58.6666 18.2114C58.3126 18.2114 57.9579 18.0412 57.6966 17.705C50.4225 8.36784 40.5858 3.22554 29.9997 3.22554C19.4136 3.22554 9.57757 8.36704 2.30352 17.7042C1.79818 18.3525 0.954843 18.3831 0.418839 17.7719C-0.117165 17.1615 -0.141832 16.1406 0.362839 15.4922C8.14556 5.50196 18.671 0 29.9997 0C41.3285 0 51.8539 5.50196 59.6366 15.4922C60.1419 16.1406 60.1173 17.1615 59.5813 17.7719C59.3233 18.0654 58.9946 18.2114 58.6666 18.2114Z" fill="#66FF00"/>
<path d="M50.5665 27.4413C50.2125 27.4413 49.8578 27.2711 49.5958 26.9348C44.4365 20.312 37.4778 16.6647 29.9997 16.6647C22.5217 16.6647 15.5623 20.3112 10.4036 26.9332C9.89957 27.5824 9.05489 27.6122 8.51889 27.0018C7.98289 26.3905 7.95822 25.3697 8.46289 24.7213C14.1303 17.4469 21.779 13.4392 29.9997 13.4392C38.2198 13.4392 45.8685 17.4461 51.5372 24.7221C52.0419 25.3705 52.0172 26.3913 51.4812 27.0026C51.2232 27.2953 50.8945 27.4413 50.5665 27.4413Z" fill="#66FF00"/>
<path d="M42.8538 36.2284C42.4998 36.2284 42.1451 36.0583 41.8831 35.7212C38.7551 31.7054 34.5344 29.4927 29.9997 29.4927C25.465 29.4927 21.2443 31.7046 18.1156 35.7212C17.611 36.3703 16.7676 36.3994 16.2309 35.7897C15.6949 35.1785 15.6696 34.1584 16.1749 33.5101C19.813 28.8395 24.7223 26.2672 29.9997 26.2672C35.2771 26.2672 40.1865 28.8387 43.8245 33.5093C44.3291 34.1576 44.3045 35.1777 43.7678 35.7889C43.5111 36.0825 43.1818 36.2284 42.8538 36.2284Z" fill="#66FF00"/>
<path d="M29.9977 48.0001C31.7345 48.0001 33.1424 46.2971 33.1424 44.1963C33.1424 42.0956 31.7345 40.3926 29.9977 40.3926C28.2609 40.3926 26.853 42.0956 26.853 44.1963C26.853 46.2971 28.2609 48.0001 29.9977 48.0001Z" fill="#66FF00"/>
</svg>
