<svg width="20" height="20" viewBox="0 0 20 20" fill="none" xmlns="http://www.w3.org/2000/svg">
<path d="M10 20C7.43814 20 4.87604 19.0249 2.92556 17.0744C-0.975185 13.1736 -0.975185 6.82634 2.92556 2.92557C6.82652 -0.975191 13.1735 -0.975191 17.0743 2.92557C20.9752 6.82634 20.9752 13.1736 17.0743 17.0744C15.124 19.0249 12.5619 20 10 20ZM10 2.22212C8.0073 2.22212 6.0148 2.98071 4.49764 4.49766C1.46375 7.53156 1.46375 12.4684 4.49764 15.5025C7.53152 18.5366 12.4683 18.5364 15.5024 15.5025C18.5365 12.4686 18.5363 7.53179 15.5024 4.49766C13.9855 2.98049 11.9928 2.22212 10 2.22212Z" fill="#D82121"/>
<path d="M5.16406 13H5.96875V7.23438H5.79297L3.64062 8.01562V8.78906L5.16406 8.17969V13ZM8.01562 11.4922C8.01562 12.0078 8.20703 12.4076 8.58984 12.6914C8.97266 12.9753 9.44141 13.1172 9.99609 13.1172C10.5482 13.1172 11.0156 12.9753 11.3984 12.6914C11.7839 12.4076 11.9766 12.0078 11.9766 11.4922C11.9766 11.1536 11.8776 10.8659 11.6797 10.6289C11.4844 10.3893 11.2331 10.2122 10.9258 10.0977V10.082C11.1628 9.97005 11.3646 9.79948 11.5312 9.57031C11.7005 9.33854 11.7852 9.06641 11.7852 8.75391C11.7852 8.28516 11.6107 7.90885 11.2617 7.625C10.9154 7.33854 10.4935 7.19531 9.99609 7.19531C9.49609 7.19531 9.07161 7.33854 8.72266 7.625C8.3763 7.90885 8.20312 8.28516 8.20312 8.75391C8.20312 9.06641 8.28776 9.33854 8.45703 9.57031C8.6263 9.79948 8.82812 9.97005 9.0625 10.082V10.0977C8.75781 10.2122 8.50651 10.3893 8.30859 10.6289C8.11328 10.8659 8.01562 11.1536 8.01562 11.4922ZM8.80469 11.4453C8.80469 11.1406 8.91406 10.8945 9.13281 10.707C9.35156 10.5169 9.63932 10.4219 9.99609 10.4219C10.3529 10.4219 10.6406 10.5169 10.8594 10.707C11.0781 10.8945 11.1875 11.1406 11.1875 11.4453C11.1875 11.7448 11.0781 11.9883 10.8594 12.1758C10.6406 12.3607 10.3529 12.4531 9.99609 12.4531C9.63932 12.4531 9.35156 12.3607 9.13281 12.1758C8.91406 11.9883 8.80469 11.7448 8.80469 11.4453ZM8.97656 8.80078C8.97656 8.52734 9.07031 8.30208 9.25781 8.125C9.44792 7.94792 9.69401 7.85938 9.99609 7.85938C10.2982 7.85938 10.543 7.94792 10.7305 8.125C10.9206 8.30208 11.0156 8.52734 11.0156 8.80078C11.0156 9.07943 10.9206 9.30859 10.7305 9.48828C10.543 9.66797 10.2982 9.75781 9.99609 9.75781C9.69401 9.75781 9.44792 9.66797 9.25781 9.48828C9.07031 9.30859 8.97656 9.07943 8.97656 8.80078ZM12.5977 10.7148H16.6289V10.0273L12.5977 10.0195V10.7148ZM14.2383 12.4453H14.9883V8.28906H14.2383V12.4453Z" fill="#69BC45"/>
</svg>
