<svg width="20" height="20" viewBox="0 0 20 20" fill="none" xmlns="http://www.w3.org/2000/svg">
<path d="M19.8506 0.583342C19.4726 -0.0519912 18.5778 -0.11688 18.112 0.45712L10.3404 10.0385C10.1502 10.2729 9.78864 10.26 9.61553 10.0129L7.75286 7.3529C7.11909 6.44779 5.79975 6.38956 5.08864 7.2349C4.5982 7.81801 4.56109 8.65779 4.99798 9.28179L8.81064 14.7267C9.27464 15.3893 10.2566 15.3882 10.7191 14.7242L11.8135 13.1531L19.8078 1.73623C20.0475 1.39379 20.0642 0.942675 19.8506 0.583342Z" fill="#69BC45"/>
<path d="M10 20C4.486 20 0 15.514 0 10C0 4.486 4.486 0 10 0C11.3493 0 12.6593 0.264444 13.8929 0.786222C14.3449 0.977556 14.5564 1.49911 14.3651 1.95111C14.1742 2.40333 13.6524 2.61489 13.2002 2.42356C12.1871 1.99511 11.1102 1.77778 10 1.77778C5.46622 1.77778 1.77778 5.46622 1.77778 10C1.77778 14.5338 5.46622 18.2222 10 18.2222C14.5338 18.2222 18.2222 14.5338 18.2222 10C18.2222 9.27822 18.1289 8.56244 17.9447 7.87267C17.818 7.39844 18.0998 6.91111 18.574 6.78444C19.048 6.65756 19.5353 6.93956 19.662 7.414C19.8862 8.25333 20 9.12333 20 10C20 15.514 15.514 20 10 20Z" fill="#69BC45"/>
</svg>
