<svg width="20" height="20" viewBox="0 0 20 20" fill="none" xmlns="http://www.w3.org/2000/svg">
<path d="M10 20C7.43814 20 4.87604 19.0249 2.92556 17.0744C-0.975185 13.1736 -0.975185 6.82634 2.92556 2.92557C6.82652 -0.975191 13.1735 -0.975191 17.0743 2.92557C20.9752 6.82634 20.9752 13.1736 17.0743 17.0744C15.124 19.0249 12.5619 20 10 20ZM10 2.22212C8.0073 2.22212 6.0148 2.98071 4.49764 4.49766C1.46375 7.53156 1.46375 12.4684 4.49764 15.5025C7.53152 18.5366 12.4683 18.5364 15.5024 15.5025C18.5365 12.4686 18.5363 7.53179 15.5024 4.49766C13.9855 2.98049 11.9928 2.22212 10 2.22212Z" fill="#D82121"/>
<path d="M15.5031 2.92456L2.92642 15.5031L4.49872 17.0751L17.0754 4.49665L15.5031 2.92456Z" fill="#D82121"/>
</svg>
