<svg width="20" height="20" viewBox="0 0 20 20" fill="none" xmlns="http://www.w3.org/2000/svg">
<path d="M1.11126 20C0.82682 20 0.542602 19.8915 0.325495 19.6744C-0.108498 19.2406 -0.108498 18.5371 0.325495 18.1033L18.103 0.325516C18.5365 -0.108261 19.2405 -0.108261 19.6741 0.325516C20.1081 0.759516 20.1081 1.46307 19.6741 1.89685L1.89658 19.6746C1.67992 19.8915 1.3957 20 1.11126 20Z" fill="#69BC45"/>
<path d="M18.8887 20C18.6045 20 18.3198 19.8916 18.1031 19.6744L0.32567 1.89667C-0.108323 1.46267 -0.108323 0.759111 0.32567 0.325333C0.759663 -0.108444 1.46298 -0.108444 1.89698 0.325333L19.6745 18.1031C20.1084 18.5369 20.1084 19.2404 19.6745 19.6742C19.4576 19.8916 19.1729 20 18.8887 20Z" fill="#69BC45"/>
</svg>
