<svg width="350" height="310" viewBox="0 0 120 110" fill="none" xmlns="http://www.w3.org/2000/svg">
<path d="M36.7351 25.7227V51.5746L43.2416 54.0305C46.679 55.4524 55.027 58.4254 61.6563 60.6228C71.3546 64.1128 73.5644 65.2761 73.5644 67.3443C73.5644 69.5417 72.9506 69.8002 69.6359 69.2832C64.3571 68.3784 48.3977 73.678 48.3977 76.2632C48.3977 77.5558 53.7993 79.8825 65.5847 83.631L82.7717 89.1892L91.2425 86.9918C104.869 83.3725 106.588 80.141 96.153 77.4265C92.2246 76.3925 90.7514 75.3584 90.7514 73.5488C90.7514 71.4806 92.2246 71.7391 104.501 76.3925C112.112 79.2362 118.619 81.0458 119.233 80.3995C119.847 79.7532 120.092 67.215 119.969 52.3502L119.601 25.3349L80.9303 12.7967C59.692 5.81668 41.0319 0.129252 39.5587 0.129252L36.7351 -8.07643e-06V25.7227ZM115.059 52.0916L115.304 74.8414L90.5059 65.6639C76.7563 60.752 60.3059 54.6768 53.9221 52.4794L42.2595 48.2139L41.8912 26.886L41.6457 5.55816L78.1067 17.3208L114.69 29.2127L115.059 52.0916ZM82.649 68.5076C86.7002 70.0587 87.0685 74.3243 83.14 73.161C81.5441 72.7732 79.9481 72.3854 79.4571 72.3854C78.475 72.3854 78.1067 67.215 78.966 67.215C79.3343 67.215 80.9303 67.7321 82.649 68.5076ZM78.1067 77.168C84.3677 79.1069 89.5238 81.0458 89.5238 81.5629C89.5238 84.0188 83.0172 83.5018 72.705 80.5288C61.4107 77.168 59.201 75.7462 63.4977 74.5828C64.6026 74.1951 65.8302 73.9365 66.0758 73.8073C66.4441 73.8073 71.8457 75.2291 78.1067 77.168Z" fill="#080808"/>
<path d="M14.6375 80.2703C1.13347 84.4066 -1.44458 85.6992 0.642413 87.8966C1.25623 88.5429 16.2335 93.8425 34.0343 99.53L66.1985 110L79.9482 106.122C94.1888 102.115 97.1352 100.564 94.9254 98.2374C93.575 96.8155 31.088 76.2632 28.7554 76.3925C28.1416 76.3925 21.7579 78.2021 14.6375 80.2703ZM56.5002 90.3525C71.6002 95.2644 83.14 99.6592 82.1579 99.9177C81.1758 100.306 77.2473 101.598 73.4416 102.632L66.5668 104.7L39.0676 95.6522C23.9676 90.7403 11.814 86.604 12.1823 86.604C12.5505 86.4747 16.1107 85.3114 20.1619 84.0188C24.2132 82.7262 27.8961 81.6921 28.2644 81.5629C28.7554 81.5629 41.4002 85.4407 56.5002 90.3525Z" fill="#080808"/>
</svg>
