<svg width="15" height="20" viewBox="0 0 32 36" fill="none" xmlns="http://www.w3.org/2000/svg">
<path d="M31.8844 18.508C31.8968 18.482 31.908 18.4556 31.9183 18.4284C31.9351 18.3844 31.9486 18.3396 31.9598 18.294C31.9661 18.2692 31.9733 18.2448 31.9781 18.2196C31.9916 18.1472 32 18.074 32 18.0004C32 17.9268 31.9913 17.8536 31.9781 17.7812C31.9733 17.7556 31.9661 17.7316 31.9598 17.7068C31.9482 17.6612 31.9351 17.6164 31.9183 17.5724C31.908 17.5452 31.8964 17.5188 31.884 17.4928C31.8657 17.4532 31.8446 17.4152 31.8219 17.3776C31.8063 17.3524 31.7912 17.3272 31.774 17.3032C31.7661 17.2924 31.7609 17.2804 31.7525 17.2696L27.086 11.172C26.6839 10.6468 25.9326 10.5476 25.4094 10.9516C24.8861 11.3552 24.7872 12.1088 25.1898 12.6344L28.3789 16.8H9.78418C9.1238 16.8 8.58856 17.3372 8.58856 18C8.58856 18.6628 9.1238 19.2 9.78418 19.2H28.3785L25.1898 23.3656C24.7872 23.8912 24.8857 24.6444 25.4094 25.0484C25.6266 25.216 25.8828 25.2968 26.1371 25.2968C26.4958 25.2968 26.8505 25.1356 27.086 24.828L31.7529 18.7312C31.7613 18.7204 31.7669 18.7084 31.7748 18.6972C31.792 18.6732 31.8067 18.6484 31.8223 18.6236C31.845 18.5856 31.8661 18.5476 31.8844 18.508Z" fill="#E1CB30"/>
<path d="M21.5566 36H1.19562C0.535239 36 0 35.4628 0 34.8V1.2C0 0.5372 0.535239 0 1.19562 0H21.5566C22.217 0 22.7523 0.5372 22.7523 1.2V13.2216C22.7523 13.8844 22.217 14.4216 21.5566 14.4216C20.8963 14.4216 20.361 13.8844 20.361 13.2216V2.4H2.39124V33.6H20.361V22.244C20.361 21.5812 20.8963 21.044 21.5566 21.044C22.217 21.044 22.7523 21.5812 22.7523 22.244V34.8C22.7523 35.4628 22.2174 36 21.5566 36Z" fill="#19BA2C"/>
</svg>
