<svg width="20" height="20" viewBox="0 0 32 32" fill="none" xmlns="http://www.w3.org/2000/svg">
<path d="M32 32H29.639C29.639 25.1289 23.5206 19.5388 16 19.5388C8.47945 19.5388 2.36143 25.1289 2.36143 32H0C0 23.9392 7.1777 17.3817 16 17.3817C24.8227 17.3817 32 23.9392 32 32Z" fill="#E1CB30"/>
<path d="M16 16.5291C11.0121 16.5291 6.95432 12.8217 6.95432 8.26453C6.95432 3.70738 11.0121 0 16 0C20.9875 0 25.0457 3.70738 25.0457 8.26453C25.0457 12.8217 20.9875 16.5291 16 16.5291ZM16 2.15716C12.3142 2.15716 9.31576 4.89671 9.31576 8.26418C9.31576 11.6316 12.3142 14.3716 16 14.3716C19.6858 14.3716 22.6842 11.632 22.6842 8.26418C22.6842 4.89707 19.6858 2.15716 16 2.15716Z" fill="#E1CB30"/>
</svg>
