<svg width="100" height="100" viewBox="0 0 100 100" fill="none" xmlns="http://www.w3.org/2000/svg">
<path d="M98.4088 60.3966C89.1455 56.5599 89.1455 43.4388 98.4088 39.6022C99.7232 39.0577 100.348 37.55 99.8032 36.2355L94.9488 24.5166C94.4043 23.2022 92.8966 22.5777 91.5821 23.1222C82.3188 26.9589 73.041 17.6811 76.8788 8.41887C77.4233 7.10443 76.7988 5.59665 75.4844 5.05221L63.7644 0.19666C62.4499 -0.347783 60.9422 0.27666 60.3977 1.5911C56.5611 10.8544 43.44 10.8544 39.6033 1.5911C39.0589 0.27666 37.5511 -0.347783 36.2366 0.19666L24.5166 5.0511C23.2022 5.59554 22.5778 7.10332 23.1222 8.41776C26.9589 17.6811 17.6811 26.9589 8.41778 23.1222C7.10333 22.5777 5.59556 23.2022 5.05111 24.5166L0.196676 36.2355C-0.347768 37.55 0.276676 39.0577 1.59112 39.6022C10.8544 43.4388 10.8544 56.5599 1.59112 60.3966C0.276676 60.941 -0.347768 62.4488 0.196676 63.7633L5.05111 75.4821C5.59556 76.7966 7.10333 77.421 8.41778 76.8766C17.6811 73.0399 26.9589 82.3177 23.1211 91.581C22.5767 92.8954 23.2011 94.4032 24.5155 94.9477L36.2344 99.8021C37.5489 100.347 39.0566 99.7221 39.6011 98.4077C43.4377 89.1443 56.5588 89.1443 60.3955 98.4077C60.9399 99.7221 62.4477 100.347 63.7622 99.8021L75.481 94.9477C76.7955 94.4032 77.4199 92.8954 76.8755 91.581C73.0388 82.3177 82.3166 73.0399 91.5799 76.8777C92.8943 77.4221 94.4021 76.7977 94.9466 75.4832L99.801 63.7644C100.348 62.4488 99.7232 60.9421 98.4088 60.3966ZM50 71.1688C38.3089 71.1688 28.8311 61.691 28.8311 49.9999C28.8311 38.3088 38.3089 28.8311 50 28.8311C61.6911 28.8311 71.1688 38.3088 71.1688 49.9999C71.1688 61.691 61.6911 71.1688 50 71.1688Z" fill="#19BA2C"/>
</svg>
