<svg width="20" height="20" viewBox="0 0 30 32" fill="none" xmlns="http://www.w3.org/2000/svg">
<path d="M30 32L27.7865 32C27.7865 26.0574 22.0505 21.2228 15 21.2228C7.94948 21.2228 2.21384 26.0574 2.21384 32L2.92816e-08 32C1.31352e-08 25.0285 6.72909 19.3571 15 19.3571C23.2713 19.3571 30 25.0285 30 32Z" fill="#E1CB30"/>
<path d="M15 18.6198C10.3239 18.6198 6.51968 15.4134 6.51968 11.472C6.51968 7.53072 10.3239 4.32434 15 4.32434C19.6758 4.32434 23.4803 7.53072 23.4803 11.472C23.4803 15.4134 19.6758 18.6198 15 18.6198ZM15 6.18999C11.5446 6.18999 8.73352 8.55934 8.73352 11.4717C8.73352 14.3841 11.5446 16.7538 15 16.7538C18.4554 16.7538 21.2665 14.3845 21.2665 11.4717C21.2665 8.55964 18.4554 6.18999 15 6.18999Z" fill="#E1CB30"/>
<path d="M20.9504 7.22935L15.8702 5.0863C15.7981 5.0559 15.7601 4.98132 15.7792 4.90785L16.727 1.24268C16.7428 1.18132 16.7954 1.13369 16.861 1.12131C16.9265 1.10882 16.9926 1.13408 17.0295 1.18548L18.4155 3.119L20.574 1.46166C20.6235 1.42361 20.6909 1.41444 20.7482 1.43808C20.8021 1.46053 20.843 1.51401 20.8453 1.5735L20.9443 4.16058L23.3905 3.86892C23.4568 3.86103 23.5205 3.89064 23.5533 3.94452C23.5861 3.9984 23.5814 4.06623 23.5415 4.11746L21.1564 7.17629C21.1084 7.23751 21.0224 7.25972 20.9504 7.22935Z" fill="#FFDF40"/>
</svg>
