<svg width="24" height="30" viewBox="0 0 17 24" fill="none" xmlns="http://www.w3.org/2000/svg">
<path d="M8.50053 0.480533C12.9227 0.480533 16.5205 4.07813 16.5205 8.50053C16.5205 10.3944 15.8437 12.2349 14.6152 13.6829L8.50053 20.8845L2.38587 13.6829C1.15707 12.2349 0.480533 10.3944 0.480533 8.50053C0.480533 4.0784 4.0784 0.480533 8.50053 0.480533ZM8.50053 12.1845C10.6931 12.1845 12.4771 10.4008 12.4771 8.208C12.4771 6.01547 10.6933 4.23147 8.50053 4.23147C6.30773 4.23147 4.524 6.0152 4.524 8.208C4.524 10.4005 6.308 12.1845 8.50053 12.1845ZM8.50053 0C3.80587 0 0 3.80587 0 8.50053C0 10.5965 0.762133 12.512 2.01947 13.9939L8.50053 21.6269L14.9816 13.9939C16.2392 12.5117 17.0011 10.5963 17.0011 8.50053C17.0011 3.80587 13.1952 0 8.50053 0ZM8.50053 11.7037C6.56987 11.7037 5.00453 10.1387 5.00453 8.20773C5.00453 6.27707 6.5696 4.71173 8.50053 4.71173C10.4315 4.71173 11.9965 6.2768 11.9965 8.20773C11.9965 10.1387 10.4312 11.7037 8.50053 11.7037Z" fill="#19BA2C"/>
<path d="M12.1843 19.075L11.7643 19.495C14.3701 19.9035 15.9197 20.7502 15.9197 21.3867C15.9197 22.2563 13.0296 23.5192 8.50053 23.5192C3.97147 23.5192 1.08133 22.2563 1.08133 21.3867C1.08133 20.7502 2.63093 19.9035 5.2368 19.495L4.8168 19.075C2.30987 19.5131 0.6008 20.3835 0.6008 21.3867C0.6008 22.8299 4.1376 24 8.5008 24C12.8637 24 16.4008 22.8299 16.4008 21.3867C16.4005 20.3838 14.6912 19.5131 12.1843 19.075Z" fill="#19BA2C"/>
</svg>
