<svg width="28" height="20" viewBox="0 0 32 24" fill="none" xmlns="http://www.w3.org/2000/svg">
<path d="M29.1399 24H2.86009C1.28284 24 0 22.6865 0 21.0724V2.92726C0 1.31313 1.28284 0 2.86009 0H29.1399C30.7172 0 32 1.31313 32 2.92726V21.072C32 22.6865 30.7172 24 29.1399 24ZM2.86009 0.727901C1.67502 0.727901 0.711111 1.71457 0.711111 2.92726V21.072C0.711111 22.2851 1.67502 23.2717 2.86009 23.2717H29.1399C30.325 23.2717 31.2889 22.2851 31.2889 21.072V2.92726C31.2889 1.71421 30.325 0.727901 29.1399 0.727901H2.86009Z" fill="#19BA2C"/>
<path d="M16 15.4191C15.914 15.4191 15.8276 15.3871 15.7596 15.3234L0.899915 1.36883C0.755204 1.23308 0.745248 1.0027 0.878226 0.854571C1.01085 0.706443 1.23591 0.695889 1.38063 0.83237L16 14.561L30.6197 0.83237C30.7637 0.696253 30.9892 0.706079 31.1221 0.854571C31.2548 1.0027 31.2452 1.23308 31.1001 1.36883L16.2404 15.3234C16.1724 15.3871 16.086 15.4191 16 15.4191Z" fill="#19BA2C"/>
<path d="M5.6704 19.0088C5.57404 19.0088 5.4784 18.9691 5.40835 18.8909C5.27538 18.7431 5.28533 18.5127 5.43004 18.3766L12.5063 11.732C12.651 11.5955 12.8757 11.606 13.0087 11.7542C13.1417 11.9023 13.1317 12.1327 12.987 12.2684L5.91075 18.9131C5.84249 18.9771 5.75609 19.0088 5.6704 19.0088Z" fill="#19BA2C"/>
<path d="M26.3299 19.0088C26.2439 19.0088 26.1579 18.9771 26.0896 18.9131L19.0133 12.2681C18.8686 12.1323 18.8587 11.9019 18.9913 11.7538C19.1243 11.6049 19.3497 11.5955 19.4937 11.7316L26.5699 18.3762C26.7147 18.5124 26.7246 18.7424 26.592 18.8905C26.5219 18.9688 26.4259 19.0088 26.3299 19.0088Z" fill="#19BA2C"/>
</svg>
