<svg width="24" height="24" viewBox="0 0 24 24" fill="none" xmlns="http://www.w3.org/2000/svg">
<path d="M4.40069 0.8C4.41963 0.8 4.43856 0.800267 4.45803 0.8008C4.49296 0.8016 4.52763 0.803733 4.5615 0.805867C4.6071 0.8088 4.6527 0.812267 4.6983 0.8176C4.73483 0.821867 4.7711 0.827733 4.80737 0.833333C4.85057 0.840267 4.8935 0.846933 4.93724 0.856267C4.97164 0.863467 5.00524 0.872533 5.05057 0.884L5.0655 0.888C5.10097 0.897067 5.13644 0.905867 5.17164 0.9168C5.20444 0.926933 5.23671 0.9392 5.26924 0.950933L5.28951 0.9584L5.32258 0.9704C5.34871 0.979733 5.37511 0.989067 5.40098 0.999733C5.43351 1.01333 5.46551 1.02907 5.49751 1.04453L5.52258 1.05653L5.56658 1.07733C5.58578 1.0864 5.60498 1.09493 5.62391 1.10507C5.65725 1.12293 5.68952 1.1432 5.72205 1.16293L5.74845 1.1792L5.79965 1.20987C5.81218 1.21733 5.82525 1.22427 5.83778 1.2328C5.87859 1.26 5.91779 1.29067 5.95699 1.3208L5.97139 1.33173C5.98925 1.34533 6.00739 1.35867 6.02552 1.37173L6.04125 1.38293C6.10979 1.43893 6.17432 1.49733 6.23326 1.556L8.40903 3.73173C8.46796 3.79067 8.5261 3.8552 8.57996 3.9208L8.5941 3.94C8.60716 3.95813 8.62023 3.976 8.63383 3.99387L8.6461 4.01013C8.6757 4.0488 8.70557 4.08693 8.7325 4.12747C8.74103 4.14027 8.74823 4.1536 8.75597 4.16667L8.78583 4.2168L8.80264 4.24427C8.82237 4.27627 8.84237 4.30827 8.85997 4.3416C8.8701 4.36053 8.8789 4.38 8.8877 4.3992L8.90824 4.44267L8.9205 4.46827C8.9357 4.5 8.95144 4.53173 8.96504 4.56427C8.97571 4.5896 8.9845 4.61547 8.99384 4.64133L9.00611 4.6752L9.01357 4.69547C9.02557 4.728 9.03757 4.76053 9.04797 4.79413C9.05864 4.82827 9.06717 4.86293 9.07597 4.8976L9.08237 4.92293C9.09144 4.95813 9.10077 4.99333 9.10851 5.02933C9.11757 5.07173 9.12424 5.1144 9.13091 5.15733C9.13677 5.19413 9.14264 5.23067 9.14691 5.268C9.15224 5.31333 9.15544 5.35867 9.15837 5.40373C9.16051 5.4384 9.16264 5.4728 9.16344 5.50747C9.16451 5.5552 9.16424 5.60293 9.16291 5.6504C9.16184 5.68267 9.16051 5.71493 9.15837 5.74747C9.15517 5.79733 9.15037 5.84693 9.14451 5.89547C9.14077 5.92507 9.13651 5.95467 9.13171 5.98453C9.12344 6.03627 9.11437 6.08747 9.10317 6.1384C9.09784 6.1624 9.09171 6.18587 9.08371 6.2176C9.07037 6.27067 9.05597 6.32373 9.03944 6.37573C9.03517 6.38933 9.03011 6.40267 9.02531 6.41627L9.01517 6.44453C8.99597 6.49893 8.97624 6.55307 8.95357 6.60587L8.9437 6.62693L8.92664 6.66347C8.90104 6.7192 8.8749 6.7744 8.84237 6.83333L8.81917 6.8728C8.7805 6.94027 8.7501 6.98987 8.72183 7.032C8.71277 7.044 8.70397 7.056 8.69543 7.068C8.64583 7.13893 8.60396 7.1944 8.5637 7.2424C8.50263 7.31547 8.4549 7.36853 8.40903 7.4144L6.937 8.8864C6.43673 9.38667 6.43673 10.2003 6.937 10.7005L13.2998 17.0632C13.5422 17.3056 13.8643 17.4389 14.207 17.4389C14.5497 17.4389 14.8718 17.3056 15.1142 17.0632L16.5862 15.5912C16.6321 15.5453 16.6852 15.4976 16.7582 15.4363C16.8065 15.396 16.862 15.3539 16.9326 15.3043C16.9441 15.2963 16.9553 15.288 16.9681 15.2784C17.0108 15.2496 17.0609 15.2189 17.1292 15.1797L17.1713 15.1544C17.2257 15.1245 17.2814 15.0984 17.3377 15.0725L17.3737 15.0557L17.3935 15.0464C17.4471 15.0235 17.5015 15.0035 17.5569 14.984L17.5852 14.9739C17.598 14.9693 17.6108 14.9645 17.6239 14.9603C17.6767 14.9435 17.7297 14.9291 17.7916 14.9133C17.8148 14.9075 17.838 14.9013 17.8615 14.8963C17.9129 14.8851 17.9644 14.8757 18.0169 14.8675C18.046 14.8629 18.0751 14.8584 18.1039 14.8549C18.1537 14.8488 18.2033 14.8443 18.2545 14.8408C18.2863 14.8387 18.3183 14.8373 18.3497 14.8363C18.3785 14.8355 18.4073 14.8349 18.4364 14.8349C18.4553 14.8349 18.4743 14.8352 18.4935 14.8357C18.5281 14.8365 18.5628 14.8387 18.5969 14.8408C18.6425 14.8437 18.6879 14.8472 18.7337 14.8525C18.7703 14.8568 18.8065 14.8627 18.8428 14.8683C18.886 14.8752 18.9289 14.8819 18.9724 14.8912C19.0065 14.8984 19.0404 14.9075 19.0857 14.9189L19.1007 14.9227C19.1361 14.9317 19.1716 14.9405 19.2068 14.9515C19.2396 14.9616 19.2719 14.9739 19.3044 14.9856L19.3247 14.9931L19.3577 15.0051C19.3839 15.0144 19.4103 15.0237 19.4364 15.0344C19.469 15.048 19.5007 15.0637 19.5327 15.0789L19.558 15.0909L19.602 15.1117C19.6212 15.1208 19.6404 15.1293 19.6594 15.1395C19.6927 15.1573 19.725 15.1776 19.7575 15.1973L19.7839 15.2136L19.8351 15.2443C19.8476 15.2517 19.8607 15.2587 19.8732 15.2672C19.914 15.2944 19.9532 15.3251 19.9927 15.3552L20.0071 15.3661C20.025 15.3797 20.0431 15.3931 20.0612 15.4061L20.077 15.4173C20.1455 15.4733 20.21 15.5317 20.269 15.5904L22.4447 17.7661C22.5037 17.8251 22.5618 17.8896 22.6157 17.9552L22.6298 17.9744C22.6429 17.9925 22.6559 18.0104 22.6695 18.0283L22.6815 18.0443C22.7111 18.0829 22.7413 18.1213 22.7682 18.1619C22.7767 18.1747 22.7839 18.188 22.7917 18.2011L22.8215 18.2512L22.8383 18.2787C22.8581 18.3107 22.8781 18.3427 22.8957 18.376C22.9058 18.3949 22.9146 18.4144 22.9237 18.4336L22.9442 18.4771L22.9567 18.5029C22.9719 18.5347 22.9874 18.5661 23.001 18.5984C23.0117 18.6237 23.0205 18.6496 23.0298 18.6752L23.0421 18.7091L23.0495 18.7299C23.0613 18.7624 23.0735 18.7947 23.0839 18.828C23.0946 18.8621 23.1031 18.8965 23.1119 18.9309L23.1183 18.9563C23.1274 18.9917 23.1367 19.0269 23.1445 19.0632C23.1536 19.1056 23.1602 19.1483 23.1669 19.1909C23.1728 19.2277 23.1786 19.2643 23.1829 19.3016C23.1882 19.3469 23.1914 19.3923 23.1943 19.4373C23.1965 19.4717 23.1986 19.5064 23.1994 19.5411C23.2005 19.5888 23.2002 19.6365 23.1989 19.6837C23.1978 19.716 23.1965 19.7483 23.1943 19.7808C23.1911 19.8307 23.1863 19.8803 23.1805 19.9288C23.1767 19.9584 23.1725 19.988 23.1677 20.0179C23.1594 20.0696 23.1503 20.1208 23.1391 20.1717C23.1338 20.1957 23.1277 20.2192 23.1197 20.2509C23.1063 20.3043 23.0919 20.3571 23.0754 20.4091C23.0711 20.4227 23.0661 20.4363 23.0613 20.4496L23.0511 20.4779C23.0319 20.5323 23.0122 20.5864 22.9895 20.6392L22.9797 20.6603L22.9626 20.6968C22.937 20.7525 22.9109 20.8077 22.8783 20.8667L22.8551 20.9061C22.8165 20.9736 22.7861 21.0232 22.7578 21.0653C22.7487 21.0773 22.7399 21.0893 22.7314 21.1013C22.6818 21.1723 22.6399 21.2277 22.5997 21.2755C22.5386 21.3485 22.4909 21.4016 22.445 21.4475L22.4381 21.4544L22.4311 21.4616C21.3655 22.5813 19.7567 23.1981 17.9009 23.1981C14.4393 23.1981 10.4581 21.1077 6.6866 17.3077C2.854 13.5059 0.763563 9.49333 0.800364 6.0104C0.819564 4.1936 1.43611 2.61627 2.53666 1.56933L2.54386 1.5624L2.55079 1.55547C2.59666 1.5096 2.64973 1.46187 2.7228 1.40053C2.77106 1.36027 2.82653 1.31813 2.89747 1.26853C2.90893 1.26053 2.92013 1.25227 2.93293 1.24267C2.9756 1.21387 3.02574 1.1832 3.09427 1.144L3.1364 1.11867C3.19081 1.0888 3.24654 1.06267 3.30281 1.0368L3.33881 1.02L3.35854 1.01067C3.41214 0.987733 3.46681 0.967733 3.52201 0.948267L3.55028 0.938133C3.56335 0.9336 3.57615 0.9288 3.58895 0.924533C3.64175 0.907733 3.69481 0.893333 3.75668 0.8776C3.77988 0.871733 3.80308 0.8656 3.82655 0.860533C3.87802 0.849333 3.92948 0.84 3.98202 0.831733C4.01109 0.8272 4.04015 0.822667 4.06869 0.8192C4.11855 0.813067 4.16816 0.808533 4.21936 0.805067C4.25109 0.802933 4.28309 0.8016 4.31456 0.800533C4.34309 0.800267 4.37189 0.8 4.40069 0.8ZM4.40069 0C4.36389 0 4.32736 0.000533337 4.29056 0.0016C4.24869 0.00293334 4.20709 0.0048 4.16549 0.00746667C4.10042 0.0117333 4.03535 0.0178667 3.97055 0.0258667C3.93242 0.0306667 3.89455 0.0362667 3.85668 0.0421333C3.78895 0.0528 3.72175 0.0650667 3.65455 0.0797333C3.62041 0.0872 3.58655 0.096 3.55268 0.104533C3.48281 0.122133 3.41348 0.141067 3.34441 0.1632C3.31481 0.1728 3.28547 0.183733 3.25614 0.193867C3.18441 0.2192 3.1132 0.2456 3.0428 0.275733C3.018 0.2864 2.99374 0.2984 2.9692 0.309867C2.89587 0.343467 2.82307 0.3784 2.75186 0.417333C2.73266 0.428 2.714 0.439733 2.69506 0.450933C2.61986 0.494133 2.54573 0.538667 2.47346 0.588C2.46173 0.596 2.45053 0.605333 2.43879 0.613333C2.36066 0.668 2.28386 0.7248 2.20972 0.786933C2.13292 0.8512 2.05719 0.9176 1.98518 0.9896C-1.03167 3.86027 -1.30154 10.5088 6.12259 17.8773C10.5221 22.3099 14.6654 24 17.9007 24C20.0842 24 21.8538 23.2304 23.0106 22.0149C23.0826 21.9429 23.1493 21.8672 23.2133 21.7904C23.2752 21.7165 23.3317 21.64 23.3864 21.5624C23.3949 21.5504 23.4042 21.5389 23.4125 21.5267C23.4616 21.4547 23.5058 21.3808 23.5488 21.3061C23.56 21.2867 23.5722 21.2677 23.5829 21.248C23.6218 21.1771 23.6565 21.1048 23.6898 21.0317C23.7013 21.0067 23.7136 20.9821 23.7245 20.9571C23.7546 20.8872 23.7808 20.8163 23.8058 20.7448C23.8162 20.7149 23.8274 20.6853 23.837 20.6552C23.8589 20.5867 23.8778 20.5176 23.8954 20.448C23.9042 20.4136 23.9128 20.3795 23.9205 20.3451C23.9352 20.2784 23.9472 20.2115 23.9578 20.144C23.964 20.1056 23.9696 20.0675 23.9744 20.0288C23.9824 19.9643 23.9882 19.8997 23.9925 19.8349C23.9952 19.7928 23.9973 19.7509 23.9984 19.7088C24.0002 19.6467 24.0005 19.5848 23.9992 19.5227C23.9981 19.4776 23.9957 19.4325 23.9928 19.3875C23.989 19.3283 23.9845 19.2691 23.9776 19.2101C23.972 19.1621 23.9645 19.1144 23.957 19.0664C23.9482 19.0104 23.9392 18.9547 23.9274 18.8992C23.9168 18.8488 23.9037 18.7989 23.8909 18.7488C23.8773 18.6963 23.8642 18.644 23.848 18.5923C23.8317 18.54 23.8125 18.4885 23.7938 18.4368C23.7762 18.3883 23.7594 18.3395 23.7394 18.2915C23.717 18.2376 23.6912 18.1853 23.6658 18.1325C23.6445 18.088 23.6248 18.0432 23.6013 17.9997C23.5717 17.944 23.5378 17.8904 23.505 17.836C23.4813 17.7971 23.4594 17.7571 23.4338 17.7189C23.3938 17.6589 23.3493 17.6013 23.305 17.5435C23.2818 17.5131 23.261 17.4816 23.2368 17.452C23.1661 17.3656 23.0906 17.2816 23.0101 17.2011L20.8343 15.0253C20.7538 14.9448 20.6698 14.8696 20.5834 14.7987C20.5538 14.7744 20.5226 14.7539 20.4924 14.7307C20.4343 14.6864 20.3767 14.6416 20.3164 14.6016C20.2783 14.5763 20.2388 14.5547 20.1999 14.5309C20.1455 14.4979 20.0916 14.464 20.0359 14.4344C19.9924 14.4112 19.9476 14.3912 19.9034 14.3701C19.8506 14.3448 19.7978 14.3189 19.7439 14.2965C19.6959 14.2765 19.6468 14.2597 19.598 14.2419C19.5466 14.2232 19.4956 14.2043 19.4434 14.188C19.3911 14.1717 19.3383 14.1584 19.2855 14.1448C19.2359 14.132 19.1863 14.1192 19.1364 14.1085C19.0804 14.0968 19.0244 14.0875 18.9681 14.0787C18.9207 14.0712 18.8732 14.0637 18.8255 14.0581C18.7663 14.0512 18.7071 14.0467 18.6476 14.0429C18.6025 14.04 18.5577 14.0376 18.5127 14.0365C18.4871 14.036 18.4615 14.0357 18.4361 14.0357C18.3993 14.0357 18.3628 14.0363 18.326 14.0373C18.2841 14.0387 18.2425 14.0405 18.2009 14.0432C18.1359 14.0475 18.0708 14.0536 18.006 14.0616C17.9679 14.0664 17.93 14.072 17.8919 14.0779C17.8241 14.0885 17.7569 14.1008 17.6897 14.1155C17.6556 14.1229 17.6217 14.1317 17.5879 14.1403C17.518 14.1579 17.4487 14.1768 17.3796 14.1989C17.35 14.2085 17.3206 14.2195 17.2913 14.2296C17.2196 14.2549 17.1484 14.2813 17.078 14.3115C17.0532 14.3221 17.0289 14.3341 17.0044 14.3456C16.931 14.3792 16.8582 14.4141 16.787 14.4531C16.7678 14.4637 16.7492 14.4755 16.7302 14.4867C16.655 14.5299 16.5809 14.5744 16.5086 14.6237C16.4969 14.6317 16.4857 14.6411 16.474 14.6491C16.3958 14.7037 16.319 14.7605 16.2449 14.8227C16.1681 14.8869 16.0924 14.9533 16.0204 15.0253L14.5483 16.4973C14.4539 16.5917 14.3305 16.6387 14.207 16.6387C14.0835 16.6387 13.9598 16.5915 13.8657 16.4973L7.50288 10.1341C7.31434 9.9456 7.31434 9.63973 7.50288 9.4512L8.9749 7.9792C9.04691 7.9072 9.11357 7.83147 9.17784 7.75467C9.23971 7.6808 9.29624 7.60427 9.35091 7.52667C9.35944 7.51467 9.36878 7.5032 9.37704 7.49093C9.42611 7.41893 9.47038 7.34507 9.51331 7.2704C9.52451 7.25093 9.53678 7.232 9.54745 7.21227C9.58638 7.14133 9.62105 7.06907 9.65438 6.996C9.66585 6.97093 9.67812 6.9464 9.68905 6.92133C9.71918 6.85147 9.74532 6.78053 9.77039 6.70907C9.78079 6.6792 9.79199 6.6496 9.80159 6.61947C9.82345 6.55093 9.84239 6.48187 9.85999 6.41227C9.86879 6.37787 9.87732 6.34373 9.88505 6.30933C9.89972 6.24267 9.91172 6.17573 9.92239 6.10827C9.92852 6.06987 9.93412 6.03173 9.93892 5.99307C9.94692 5.92853 9.95279 5.864 9.95705 5.7992C9.95999 5.75707 9.96186 5.7152 9.96292 5.67307C9.96479 5.61093 9.96506 5.54907 9.96372 5.48693C9.96266 5.44187 9.96026 5.3968 9.95732 5.35173C9.95359 5.29253 9.94905 5.23333 9.94212 5.1744C9.93652 5.1264 9.92905 5.07867 9.92159 5.03067C9.91279 4.97467 9.90345 4.91893 9.89199 4.86347C9.88132 4.81307 9.86825 4.7632 9.85545 4.71307C9.84185 4.66053 9.82879 4.60827 9.81252 4.55653C9.79625 4.50427 9.77705 4.4528 9.75838 4.40107C9.74078 4.35253 9.72398 4.30373 9.70398 4.25573C9.68158 4.20187 9.65572 4.1496 9.63038 4.0968C9.60905 4.05227 9.58932 4.00747 9.56585 3.964C9.53625 3.90827 9.50238 3.85467 9.46958 3.80027C9.44585 3.76133 9.42398 3.72133 9.39838 3.6832C9.35838 3.6232 9.31384 3.5656 9.26958 3.50773C9.24638 3.47733 9.22558 3.44587 9.20131 3.41627C9.13064 3.32987 9.05517 3.24587 8.97464 3.16533L6.79887 0.9896C6.71833 0.909067 6.63433 0.833867 6.54793 0.762933C6.51833 0.738667 6.48713 0.718133 6.45673 0.694933C6.39859 0.650667 6.34099 0.605867 6.28073 0.565867C6.24259 0.540533 6.20312 0.518933 6.16419 0.4952C6.10979 0.462133 6.05592 0.428267 6.00019 0.398667C5.95672 0.375467 5.91192 0.355467 5.86765 0.3344C5.81485 0.309067 5.76205 0.2832 5.70818 0.2608C5.66018 0.2408 5.61111 0.224 5.56231 0.206133C5.51085 0.187467 5.45991 0.168533 5.40764 0.152267C5.35538 0.136 5.30258 0.122667 5.24977 0.109067C5.20017 0.0962667 5.15057 0.0834667 5.10071 0.0728C5.0447 0.0610667 4.9887 0.0517333 4.93244 0.0429333C4.88497 0.0354667 4.8375 0.028 4.78977 0.0224C4.73057 0.0154667 4.67136 0.0109333 4.6119 0.0072C4.56683 0.00426667 4.52203 0.00186667 4.47696 0.000800002C4.45189 0.000266668 4.42629 0 4.40069 0Z" fill="#19BA2C"/>
</svg>
