<svg width="25" height="25" viewBox="0 0 25 25" fill="none" xmlns="http://www.w3.org/2000/svg">
<path d="M12.5 25C19.4036 25 25 19.4036 25 12.5C25 5.59644 19.4036 0 12.5 0C5.59644 0 0 5.59644 0 12.5C0 19.4036 5.59644 25 12.5 25Z" fill="url(#paint0_linear_20_32)"/>
<path d="M10.2083 18.2292C9.80334 18.2292 9.87223 18.0764 9.7325 17.6906L8.54167 13.7717L17.7083 8.33334" fill="#C8DAEA"/>
<path d="M10.2083 18.2291C10.5208 18.2291 10.6589 18.0864 10.8333 17.9166L12.5 16.2961L10.4211 15.0425" fill="#A9C9DD"/>
<path d="M10.4208 15.0428L15.4583 18.7644C16.0333 19.0817 16.448 18.9175 16.5914 18.2308L18.6419 8.56805C18.8519 7.72639 18.3211 7.34444 17.7711 7.59417L5.73026 12.2369C4.90832 12.5667 4.91332 13.0253 5.58054 13.2294L8.67054 14.1939L15.8239 9.68083C16.1617 9.47611 16.4717 9.58611 16.2172 9.81194L10.4208 15.0428Z" fill="#FCFDFF"/>
<defs>
<linearGradient id="paint0_linear_20_32" x1="16.1639" y1="21.0442" x2="9.91389" y2="6.46917" gradientUnits="userSpaceOnUse">
<stop stop-color="#37AEE2"/>
<stop offset="1" stop-color="#1E96C8"/>
</linearGradient>
</defs>
</svg>
