<svg width="28" height="25" viewBox="0 0 28 25" fill="none" xmlns="http://www.w3.org/2000/svg">
<path fill-rule="evenodd" clip-rule="evenodd" d="M27.3577 1.6927C27.5524 0.717025 27.3577 0 26.4315 0H23.3683C22.5892 0 22.2302 0.61927 22.0358 1.30262C22.0358 1.30262 20.4777 7.01076 18.271 10.7189C17.5573 11.7923 17.2328 12.1342 16.843 12.1342C16.6486 12.1342 16.3667 11.7923 16.3667 10.8171V1.6927C16.3667 0.521983 16.1405 0 15.4915 0H10.6774C10.1908 0 9.89773 0.543499 9.89773 1.05893C9.89773 2.16885 11.0012 2.42516 11.1151 5.54771V12.3293C11.1151 13.8162 10.9365 14.0865 10.547 14.0865C9.50884 14.0865 6.98261 8.3522 5.48429 1.79093C5.1906 0.515435 4.89629 0.00046747 4.11353 0.00046747H1.05032C0.174845 -2.56952e-07 0 0.619271 0 1.30215C0 2.52198 1.03818 8.57203 4.83531 16.5734C7.36652 22.0374 10.9328 25 14.1783 25C16.1253 25 16.3664 24.3419 16.3664 23.2086V19.079C16.3664 17.7629 16.5509 17.5005 17.1675 17.5005C17.6217 17.5005 18.4004 17.8414 20.2179 20.4761C22.2949 23.5987 22.6372 24.9995 23.8057 24.9995H26.8689C27.7438 24.9995 28.1815 24.3414 27.9292 23.0435C27.6526 21.7493 26.6611 19.8718 25.3454 17.6469C24.6314 16.3784 23.5602 15.0122 23.2357 14.3288C22.7812 13.4509 22.9112 13.0608 23.2357 12.2797C23.236 12.2802 26.9685 4.37605 27.3577 1.6927Z" fill="#4D76A1"/>
</svg>
