<svg width="33" height="25" viewBox="0 0 33 25" fill="none" xmlns="http://www.w3.org/2000/svg">
<path d="M32.3103 3.90397C31.9308 2.36746 30.8125 1.15714 29.3927 0.746428C26.8195 -1.89221e-07 16.5 0 16.5 0C16.5 0 6.18053 -1.89221e-07 3.60727 0.746428C2.18753 1.15714 1.0692 2.36746 0.6897 3.90397C0 6.68889 0 12.5 0 12.5C0 12.5 0 18.3111 0.6897 21.096C1.0692 22.6325 2.18753 23.8429 3.60727 24.2536C6.18053 25 16.5 25 16.5 25C16.5 25 26.8195 25 29.3927 24.2536C30.8125 23.8429 31.9308 22.6325 32.3103 21.096C33 18.3111 33 12.5 33 12.5C33 12.5 33 6.68889 32.3103 3.90397Z" fill="#FF0000"/>
<path d="M13.2 17.8571L21.7727 12.5L13.2 7.14285V17.8571Z" fill="white"/>
</svg>
