<svg width="32" height="32" viewBox="0 0 48 48" fill="none" xmlns="http://www.w3.org/2000/svg">
<path d="M13.3856 24.9108H8.89283C8.49336 24.9108 8.12803 24.6735 7.94509 24.2959C7.76216 23.9182 7.79256 23.4634 8.02349 23.117L12.1216 16.9831C12.3547 16.635 12.3872 16.195 12.2091 15.806C12.1291 15.6305 11.8843 15.2205 11.3494 15.1944L11.288 15.1933C10.5558 15.1933 9.96003 15.8276 9.96003 16.6072C9.96003 17.2341 9.48216 17.7429 8.89336 17.7429C8.30456 17.7429 7.82669 17.2341 7.82669 16.6072C7.82669 14.5749 9.37923 12.9219 11.288 12.9219C11.3403 12.9219 11.3915 12.923 11.4432 12.9253C12.6096 12.9815 13.6118 13.6862 14.127 14.8106C14.6448 15.9417 14.543 17.2784 13.8603 18.3L10.9606 22.64H13.3856C13.9744 22.64 14.4523 23.1488 14.4523 23.7757C14.4523 24.4026 13.975 24.9108 13.3856 24.9108Z" fill="#FFD164"/>
<path d="M21.5073 24.9108C20.9185 24.9108 20.4406 24.402 20.4406 23.7751V23.1045H16.1761C15.7761 23.1045 15.4097 22.8666 15.2273 22.4878C15.0449 22.1091 15.0763 21.6531 15.3094 21.3067L20.6406 13.3949C20.9099 12.994 21.3915 12.8242 21.8337 12.9758C22.2747 13.1269 22.5739 13.5636 22.5739 14.057V20.8331H23.214C23.8028 20.8331 24.2806 21.3419 24.2806 21.9688C24.2806 22.5957 23.8028 23.1045 23.214 23.1045H22.5739V23.7751C22.5739 24.402 22.0966 24.9108 21.5073 24.9108ZM18.2545 20.8331H20.4411V17.5885L18.2545 20.8331Z" fill="#FFD164"/>
<path d="M31.3681 35.0787C31.1846 35.0787 30.999 35.0281 30.8294 34.9231C30.3211 34.6051 30.151 33.9095 30.4486 33.3689L34.8604 25.3606H31.3686C30.7798 25.3606 30.3019 24.8523 30.3019 24.2249C30.3019 23.598 30.7798 23.0892 31.3686 23.0892H36.7228C37.1052 23.0892 37.4582 23.3072 37.6481 23.6604C37.838 24.0136 37.8364 24.4486 37.6428 24.7995L32.2881 34.5171C32.0907 34.8777 31.7345 35.0787 31.3681 35.0787Z" fill="#FFD164"/>
<path d="M21.5201 35.0787C21.3425 35.0787 21.1622 35.0315 20.9963 34.9316C20.4838 34.6233 20.3025 33.9299 20.5926 33.3842L31.1436 13.4983C31.4332 12.9531 32.0844 12.7595 32.5969 13.0684C33.11 13.3767 33.2908 14.0695 33.0012 14.6158L22.4497 34.5012C22.2539 34.8714 21.8923 35.0787 21.5201 35.0787Z" fill="#69BC45"/>
<path d="M22.5414 48C10.112 48 0 37.2336 0 24C0 10.7664 10.112 0 22.5414 0C34.9708 0 45.0828 10.7664 45.0828 24C45.0828 24.6269 44.6049 25.1357 44.0161 25.1357C43.4273 25.1357 42.9494 24.6269 42.9494 24C42.9494 12.0185 33.7942 2.27138 22.5414 2.27138C11.2886 2.27138 2.13334 12.0185 2.13334 24C2.13334 35.9815 11.2886 45.7286 22.5414 45.7286C29.7659 45.7286 36.5222 41.5987 40.1729 34.9498C40.4705 34.4086 41.1228 34.2263 41.6321 34.5426C42.1404 34.8595 42.3116 35.5545 42.0145 36.0963C37.983 43.4385 30.5217 48 22.5414 48Z" fill="#69BC45"/>
<path d="M44.0161 25.1357C43.743 25.1357 43.4705 25.025 43.262 24.803L40.3446 21.6968C39.9281 21.2534 39.9281 20.5345 40.3446 20.091C40.7612 19.6475 41.4364 19.6475 41.8529 20.091L44.0161 22.3936L46.1793 20.091C46.5958 19.6475 47.271 19.6475 47.6876 20.091C48.1041 20.5345 48.1041 21.2534 47.6876 21.6968L44.7702 24.803C44.5622 25.025 44.2892 25.1357 44.0161 25.1357Z" fill="#66FF00"/>
</svg>
