<svg width="32" height="32" viewBox="0 0 40 48" fill="none" xmlns="http://www.w3.org/2000/svg">
<path d="M20 48C19.0992 48 18.2652 47.6011 17.8075 46.9515L15.0159 42.9957C9.28381 34.8779 3.87064 27.2107 2.02126 24.1008C0.676726 21.7909 0 19.3248 0 16.7552C0 7.51627 8.97186 0 20 0C31.0281 0 40 7.51627 40 16.7552C40 19.3232 39.3233 21.7888 37.9902 24.0837C37.9743 24.1115 37.9565 24.1392 37.9393 24.1664C36.0542 27.3179 30.6755 34.936 24.9822 42.9979L22.1925 46.9515C21.7348 47.6011 20.9008 48 20 48Z" fill="#69BC45"/>
<path d="M20 4.64001C12.414 4.64001 6.24203 9.81015 6.24203 16.1653C6.24203 22.5205 12.414 27.6907 20 27.6907C27.5853 27.6907 33.7573 22.5205 33.7573 16.1653C33.7573 9.81015 27.5853 4.64001 20 4.64001Z" fill="#F9F9F9"/>
<path d="M9.86821 17.7653H5.30365C4.24878 17.7653 3.3938 17.049 3.3938 16.1653C3.3938 15.2816 4.24878 14.5653 5.30365 14.5653H9.86821C10.9231 14.5653 11.7781 15.2816 11.7781 16.1653C11.7781 17.049 10.9231 17.7653 9.86821 17.7653Z" fill="#69BC45"/>
<path d="M34.6963 17.7653H30.1318C29.0769 17.7653 28.2219 17.049 28.2219 16.1653C28.2219 15.2816 29.0769 14.5653 30.1318 14.5653H34.6963C35.7512 14.5653 36.6062 15.2816 36.6062 16.1653C36.6062 17.049 35.7512 17.7653 34.6963 17.7653Z" fill="#69BC45"/>
<path d="M20 30.0779C18.9451 30.0779 18.0901 29.3616 18.0901 28.4779V24.6533C18.0901 23.7696 18.9451 23.0533 20 23.0533C21.0549 23.0533 21.9099 23.7696 21.9099 24.6533V28.4779C21.9099 29.3616 21.0549 30.0779 20 30.0779Z" fill="#69BC45"/>
<path d="M20 9.27791C18.9451 9.27791 18.0901 8.56164 18.0901 7.67791V3.85391C18.0901 2.97017 18.9451 2.25391 20 2.25391C21.0549 2.25391 21.9099 2.97017 21.9099 3.85391V7.67791C21.9099 8.56111 21.0549 9.27791 20 9.27791Z" fill="#69BC45"/>
<path d="M20 14.032C18.5956 14.032 17.4535 14.9888 17.4535 16.1653C17.4535 17.3418 18.5956 18.2986 20 18.2986C21.4037 18.2986 22.5465 17.3418 22.5465 16.1653C22.5465 14.9893 21.4037 14.032 20 14.032Z" fill="#69BC45"/>
</svg>
