<svg width="32" height="32" viewBox="0 0 48 48" fill="none" xmlns="http://www.w3.org/2000/svg">
<path d="M26.4878 33.1135C27.0073 33.633 27.8057 33.7503 28.4526 33.4031L31.7582 31.6282C38.0322 32.937 43.0706 35.8154 46.6935 40.4911C46.702 40.4708 46.7105 40.4516 46.7196 40.4314C45.9767 42.1444 45.1884 43.9871 44.7884 45.0079C44.6567 45.3444 44.4604 45.6522 44.1874 45.889C37.428 51.7482 23.9796 44.609 13.6858 34.3151C3.391 24.0212 -3.74813 10.5727 2.11101 3.81321C2.34781 3.54015 2.65607 3.34388 2.99207 3.21215C4.01286 2.81215 5.85551 2.02388 7.56856 1.28094C7.54829 1.28948 7.52909 1.29801 7.50882 1.30708C12.1845 4.93001 15.0629 9.96841 16.3717 16.2425L14.5967 19.5481C14.2496 20.1951 14.3669 20.9935 14.8863 21.5129L20.6868 27.3135L26.4878 33.1135Z" fill="#69BC45"/>
<path d="M31.7582 31.6281L35.4035 29.6713C35.9176 29.3951 36.5389 29.4084 37.0408 29.7065L47.1831 35.7252C47.9068 36.1545 48.198 37.0527 47.8593 37.8228C47.5399 38.5497 47.1234 39.5007 46.694 40.4911L31.7582 31.6281Z" fill="#47A047"/>
<path d="M16.3722 16.242L18.329 12.5967C18.6052 12.0825 18.5919 11.4612 18.2938 10.9593L12.2757 0.816937C11.8464 0.0932032 10.9483 -0.197997 10.1781 0.14067C9.4512 0.460137 8.50028 0.87667 7.50989 1.306L16.3722 16.242Z" fill="#47A047"/>
</svg>
