<svg width="60" height="60" viewBox="0 0 60 60" fill="none" xmlns="http://www.w3.org/2000/svg">
<path d="M0 0V60H60V0H0ZM2 2H58V58H2V2ZM22 8C20.3555 8 19 9.35547 19 11V12H19.418C19.8594 13.1055 20.7422 14 22 14H38C39.2578 14 40.1406 13.1055 40.582 12H41V11C41 9.35547 39.6445 8 38 8H22ZM22 10H38C38.5664 10 39 10.4336 39 11C39 11.5664 38.5664 12 38 12H22C21.4336 12 21 11.5664 21 11C21 10.4336 21.4336 10 22 10ZM8 53C7.44922 53 7 53.4492 7 54C7 54.5508 7.44922 55 8 55C8.55078 55 9 54.5508 9 54C9 53.4492 8.55078 53 8 53ZM12 53C11.4492 53 11 53.4492 11 54C11 54.5508 11.4492 55 12 55C12.5508 55 13 54.5508 13 54C13 53.4492 12.5508 53 12 53ZM16 53C15.4492 53 15 53.4492 15 54C15 54.5508 15.4492 55 16 55C16.5508 55 17 54.5508 17 54C17 53.4492 16.5508 53 16 53ZM20 53C19.4492 53 19 53.4492 19 54C19 54.5508 19.4492 55 20 55C20.5508 55 21 54.5508 21 54C21 53.4492 20.5508 53 20 53ZM24 53C23.4492 53 23 53.4492 23 54C23 54.5508 23.4492 55 24 55C24.5508 55 25 54.5508 25 54C25 53.4492 24.5508 53 24 53ZM28 53C27.4492 53 27 53.4492 27 54C27 54.5508 27.4492 55 28 55C28.5508 55 29 54.5508 29 54C29 53.4492 28.5508 53 28 53ZM32 53C31.4492 53 31 53.4492 31 54C31 54.5508 31.4492 55 32 55C32.5508 55 33 54.5508 33 54C33 53.4492 32.5508 53 32 53ZM36 53C35.4492 53 35 53.4492 35 54C35 54.5508 35.4492 55 36 55C36.5508 55 37 54.5508 37 54C37 53.4492 36.5508 53 36 53ZM40 53C39.4492 53 39 53.4492 39 54C39 54.5508 39.4492 55 40 55C40.5508 55 41 54.5508 41 54C41 53.4492 40.5508 53 40 53ZM44 53C43.4492 53 43 53.4492 43 54C43 54.5508 43.4492 55 44 55C44.5508 55 45 54.5508 45 54C45 53.4492 44.5508 53 44 53ZM48 53C47.4492 53 47 53.4492 47 54C47 54.5508 47.4492 55 48 55C48.5508 55 49 54.5508 49 54C49 53.4492 48.5508 53 48 53ZM52 53C51.4492 53 51 53.4492 51 54C51 54.5508 51.4492 55 52 55C52.5508 55 53 54.5508 53 54C53 53.4492 52.5508 53 52 53Z" fill="#69BC45"/>
</svg>
