<svg width="60" height="60" viewBox="0 0 60 60" fill="none" xmlns="http://www.w3.org/2000/svg">
<path d="M26.1138 60C11.7146 60 0 48.0957 0 33.4632C0 21.0555 8.29928 10.4295 20.1819 7.62212C20.6412 7.51441 21.1145 7.74745 21.3145 8.18238C21.5145 8.61799 21.3865 9.13625 21.0085 9.42417C15.5726 13.5702 12.4552 19.9025 12.4552 26.7983C12.4552 38.7691 22.0385 48.5076 33.8191 48.5076C39.3831 48.5076 44.6537 46.3404 48.661 42.405C49.001 42.0703 49.525 42.0243 49.917 42.2952C50.309 42.5649 50.4603 43.0764 50.281 43.5221C46.241 53.5323 36.7557 60 26.1138 60ZM16.3099 11.065C7.70128 14.9211 1.99999 23.5797 1.99999 33.4632C1.99999 46.9745 12.8172 57.9676 26.1138 57.9676C34.3931 57.9676 41.915 53.7274 46.3097 46.8634C42.6017 49.2568 38.2971 50.5406 33.8191 50.5406C20.9365 50.5406 10.4553 39.8903 10.4553 26.799C10.4553 20.8922 12.5466 15.3628 16.3099 11.065Z" fill="#69BC45"/>
<path d="M26.5891 34.9963C26.3818 34.9963 26.1758 34.9306 26.0011 34.8025C25.6931 34.5749 25.5391 34.1901 25.6031 33.808L26.5471 28.2156L22.5485 24.2551C22.2758 23.9855 22.1778 23.5811 22.2951 23.2132C22.4131 22.8453 22.7258 22.5771 23.1025 22.5215L28.6284 21.7052L31.0997 16.6168C31.2677 16.2699 31.6151 16.0504 31.9964 16.0504C32.3777 16.0504 32.7251 16.2699 32.8931 16.6168L35.3644 21.7052L40.8903 22.5215C41.2663 22.5771 41.5797 22.8453 41.6977 23.2132C41.815 23.5811 41.717 23.9848 41.4443 24.2551L37.4457 28.2163L38.3897 33.8087C38.4544 34.1901 38.2997 34.5756 37.9917 34.8032C37.683 35.0308 37.2757 35.0606 36.9384 34.8804L31.9964 32.2397L27.0544 34.8804C26.9078 34.9577 26.7484 34.9963 26.5891 34.9963ZM31.9964 30.0745C32.1564 30.0745 32.3157 30.1138 32.4617 30.1911L36.0757 32.1218L35.3857 28.032C35.3304 27.7027 35.4377 27.366 35.6737 27.1323L38.5977 24.2362L34.5564 23.6393C34.2311 23.5912 33.9491 23.3833 33.8037 23.0838L31.9964 19.3625L30.1898 23.0838C30.0438 23.3833 29.7624 23.5919 29.4371 23.6393L25.3958 24.2362L28.3198 27.1323C28.5558 27.366 28.6631 27.7021 28.6078 28.032L27.9171 32.1218L31.5311 30.1911C31.6771 30.1138 31.8364 30.0745 31.9964 30.0745Z" fill="#E1CB30"/>
<path d="M39.247 14.8377C39.0397 14.8377 38.8337 14.772 38.659 14.6433C38.351 14.4164 38.197 14.0309 38.261 13.6495L38.9544 9.54272L36.0191 6.63505C35.7464 6.36475 35.6484 5.96098 35.7657 5.59312C35.8837 5.22526 36.1964 4.95698 36.5731 4.90143L40.6297 4.30255L42.445 0.566357C42.613 0.219497 42.9603 0 43.3417 0C43.7223 0 44.0703 0.219497 44.2383 0.566357L46.053 4.30188L50.1096 4.90075C50.4856 4.9563 50.799 5.22458 50.917 5.59244C51.0343 5.9603 50.9363 6.36407 50.6636 6.63437L47.7283 9.54204L48.4216 13.6488C48.4863 14.0302 48.3316 14.415 48.0236 14.6426C47.7156 14.8703 47.3076 14.9001 46.9703 14.7199L43.3423 12.7817L39.7137 14.7199C39.5664 14.7991 39.4064 14.8377 39.247 14.8377ZM38.8664 6.61744L40.727 8.46081C40.963 8.69453 41.0704 9.03055 41.015 9.36048L40.5757 11.964L42.8763 10.735C43.1683 10.5792 43.5163 10.5799 43.807 10.735L46.107 11.964L45.6677 9.36048C45.6123 9.03123 45.7197 8.69453 45.9557 8.46081L47.8163 6.61744L45.245 6.23738C44.9197 6.18928 44.6377 5.9813 44.4923 5.68119L43.3417 3.31278L42.1903 5.68186C42.045 5.9813 41.763 6.18996 41.4377 6.23738L38.8664 6.61744Z" fill="#E1CB30"/>
<path d="M50.5883 36.5781C50.381 36.5781 50.175 36.5124 50.0003 36.3844C49.6923 36.1568 49.5383 35.772 49.6023 35.3899L50.127 32.281L47.9043 30.0793C47.6316 29.809 47.5336 29.4052 47.651 29.0373C47.769 28.6695 48.0816 28.4012 48.4583 28.3456L51.5296 27.8924L52.9043 25.0633C53.0723 24.7165 53.4196 24.497 53.8009 24.497C54.1816 24.497 54.5296 24.7165 54.6976 25.0633L56.0716 27.8917L59.1436 28.345C59.5196 28.4005 59.8329 28.6688 59.9509 29.0366C60.0689 29.4045 59.9702 29.8083 59.6976 30.0786L57.4742 32.2803L57.9996 35.3899C58.0642 35.7713 57.9096 36.1568 57.6016 36.3844C57.2929 36.612 56.8849 36.6411 56.5482 36.4616L53.8009 34.9936L51.0536 36.4616C50.907 36.5395 50.7476 36.5781 50.5883 36.5781ZM50.7516 30.061L51.8996 31.1984C52.1356 31.4321 52.2429 31.7682 52.1876 32.0981L51.9169 33.7043L53.3363 32.9456C53.6283 32.7905 53.9756 32.7905 54.2669 32.9456L55.6863 33.7037L55.4149 32.0981C55.3596 31.7682 55.4669 31.4321 55.7029 31.1984L56.8516 30.061L55.2643 29.8266C54.9389 29.7785 54.6569 29.5705 54.5116 29.2704L53.8023 27.8091L53.0923 29.2704C52.9469 29.5698 52.6649 29.7785 52.3396 29.8259L50.7516 30.061Z" fill="#E1CB30"/>
</svg>
