<svg width="50" height="60" viewBox="0 0 50 60" fill="none" xmlns="http://www.w3.org/2000/svg">
<path d="M50 38.624C50 50.4293 38.8075 60 25 60C11.1925 60 0 50.4293 0 38.624H0.0226112C0.0226112 30.8453 9.43893 23.0213 4.9027 12.2633C10.352 13.7693 14.1709 16.7073 16.9731 21.3593C22.8332 13.978 23.8897 8.43533 22.5385 0C30.4726 5.282 34.5013 12.4487 33.5399 22.0233C35.3434 17.3987 39.1327 15.026 43.3765 13.17C39.3642 25.122 49.9774 31.2867 49.9774 38.624H50V38.624Z" fill="#EB4036"/>
<path d="M16.8686 38.0747C19.2718 38.0747 21.2201 36.4089 21.2201 34.354C21.2201 32.2992 19.2718 30.6334 16.8686 30.6334C14.4654 30.6334 12.5172 32.2992 12.5172 34.354C12.5172 36.4089 14.4654 38.0747 16.8686 38.0747Z" fill="#E1CB30"/>
<path d="M14.6551 51.618C14.1841 51.618 13.7132 51.4734 13.3389 51.1807C12.5452 50.5587 12.4906 49.5047 13.2181 48.826L33.9072 29.5087C34.6346 28.83 35.8681 28.7834 36.661 29.4054C37.4555 30.0274 37.5093 31.0814 36.7819 31.76L16.0928 51.0767C15.7084 51.4354 15.1829 51.618 14.6551 51.618Z" fill="#E1CB30"/>
<path d="M33.1329 49.948C35.5362 49.948 37.4844 48.2822 37.4844 46.2273C37.4844 44.1725 35.5362 42.5067 33.1329 42.5067C30.7297 42.5067 28.7815 44.1725 28.7815 46.2273C28.7815 48.2822 30.7297 49.948 33.1329 49.948Z" fill="#E1CB30"/>
</svg>
