<svg width="60" height="60" viewBox="0 0 60 60" fill="none" xmlns="http://www.w3.org/2000/svg">
<path d="M30 0C13.4312 0 0 13.4312 0 30C0 46.5688 13.4312 60 30 60C46.5688 60 60 46.5688 60 30C60 13.4312 46.5688 0 30 0ZM30 1.76471C45.5947 1.76471 58.2353 14.4053 58.2353 30C58.2353 45.5947 45.5947 58.2353 30 58.2353C14.4053 58.2353 1.76471 45.5947 1.76471 30C1.76471 14.4053 14.4053 1.76471 30 1.76471ZM30 5.29412C29.5129 5.29412 29.1176 5.68941 29.1176 6.17647V29.1176H9.70588C9.21882 29.1176 8.82353 29.5129 8.82353 30C8.82353 30.4871 9.21882 30.8824 9.70588 30.8824H30C30.4871 30.8824 30.8824 30.4871 30.8824 30V6.17647C30.8824 5.68941 30.4871 5.29412 30 5.29412Z" fill="#69BC45"/>
</svg>
