<svg width="30" height="48" viewBox="0 0 30 48" fill="none" xmlns="http://www.w3.org/2000/svg">
<path d="M23.6921 48H6.30793C5.11195 48 3.9876 47.5878 3.14193 46.8384L1.31154 45.216C0.465872 44.4662 0 43.4699 0 42.4102V9.76536C0 8.70563 0.465872 7.70936 1.31154 6.96003L3.14193 5.33816C3.9876 4.58883 5.11195 4.17603 6.30793 4.17603H23.6921C24.888 4.17603 26.0124 4.58883 26.8581 5.33816L28.6885 6.95949C29.5341 7.70936 30 8.70563 30 9.76536V42.4107C30 43.4699 29.5347 44.4662 28.6891 45.216L26.8581 46.8384C26.013 47.5878 24.8886 48 23.6921 48ZM6.30793 6.30936C5.75539 6.30936 5.23534 6.50029 4.84411 6.84643L3.01372 8.46829C2.62851 8.80963 2.40761 9.28216 2.40761 9.76536V42.4107C2.40761 42.9008 2.62309 43.3611 3.01432 43.7083L4.84471 45.3302C5.23534 45.6763 5.75539 45.8667 6.30793 45.8667H23.6921C24.2368 45.8667 24.7707 45.671 25.1559 45.3296L26.9863 43.7078C27.3769 43.3616 27.5924 42.9003 27.5924 42.4102V9.76536C27.5924 9.28269 27.3715 8.80963 26.9857 8.46829L25.1559 6.84696C24.7701 6.50509 24.2374 6.30936 23.6921 6.30936H6.30793V6.30936Z" fill="#66FF00"/>
<path d="M28.7962 40.8086H1.2038C0.539304 40.8086 0 40.3307 0 39.7419V12.4342C0 11.8454 0.539304 11.3675 1.2038 11.3675H28.7962C29.4607 11.3675 30 11.8454 30 12.4342V39.7419C30 40.3307 29.4607 40.8086 28.7962 40.8086ZM2.40761 38.6752H27.5924V13.5008H2.40761V38.6752Z" fill="#66FF00"/>
<path d="M16.9171 28.7291C16.6239 28.7291 16.3302 28.6347 16.0991 28.4448L12.2656 25.2955C11.778 24.8949 11.7491 24.2197 12.2012 23.7877C12.6544 23.3557 13.4152 23.3307 13.9027 23.7307L16.8533 26.1552L21.3802 21.8293C21.8334 21.3968 22.5936 21.3717 23.0817 21.7728C23.5693 22.1733 23.5976 22.848 23.1455 23.28L17.8 28.3883C17.5623 28.6144 17.2403 28.7291 16.9171 28.7291Z" fill="#66FF00"/>
<path d="M7.73745 30.6875C7.44433 30.6875 7.1506 30.5931 6.91947 30.4032C6.43193 30.0027 6.40304 29.3275 6.85567 28.8955L12.2018 23.7878C12.6538 23.3558 13.4158 23.3307 13.9027 23.7312C14.3903 24.1317 14.4192 24.8064 13.9665 25.239L8.61984 30.3461C8.3827 30.5728 8.06068 30.6875 7.73745 30.6875Z" fill="#66FF00"/>
<path d="M21.5836 6.30933H13.6927C13.0282 6.30933 12.4889 5.83147 12.4889 5.24267V4.56267C12.4889 2.04693 14.799 0 17.6381 0C20.4779 0 22.788 2.04693 22.788 4.56267V5.24267C22.7874 5.83147 22.2487 6.30933 21.5836 6.30933ZM14.9314 4.176H20.3455C20.1354 3.01973 19.0014 2.13333 17.6381 2.13333C16.2748 2.13333 15.1408 3.01973 14.9314 4.176Z" fill="#66FF00"/>
</svg>
